<svg width="60" height="60" viewBox="0 0 60 60" fill="none" xmlns="http://www.w3.org/2000/svg">
<circle cx="30" cy="30" r="30" fill="url(#paint0_linear_172_5331)"/>
<g clip-path="url(#clip0_172_5331)">
<path d="M30.226 16.9238C34.5583 16.9238 35.0698 16.9391 36.7798 17.0192C38.3601 17.0918 39.2189 17.3551 39.7914 17.5765C40.5472 17.8704 41.0892 18.2216 41.6579 18.7903C42.2267 19.3591 42.5778 19.8973 42.8717 20.6568C43.0931 21.2294 43.3565 22.0882 43.429 23.6684C43.5054 25.3785 43.5244 25.8938 43.5244 30.2222C43.5244 34.5507 43.5092 35.066 43.429 36.776C43.3565 38.3562 43.0931 39.2151 42.8717 39.7876C42.5778 40.5434 42.2267 41.0854 41.6579 41.6541C41.0892 42.2229 40.551 42.574 39.7914 42.8679C39.2189 43.0893 38.3601 43.3527 36.7798 43.4252C35.0698 43.5015 34.5583 43.5206 30.226 43.5206C25.8938 43.5206 25.3823 43.5054 23.6723 43.4252C22.092 43.3527 21.2332 43.0893 20.6607 42.8679C19.9049 42.574 19.3629 42.2229 18.7941 41.6541C18.2254 41.0854 17.8742 40.5472 17.5803 39.7876C17.359 39.2151 17.0956 38.3562 17.0231 36.776C16.9467 35.066 16.9276 34.5507 16.9276 30.2222C16.9276 25.8938 16.9429 25.3785 17.0231 23.6684C17.0956 22.0882 17.359 21.2294 17.5803 20.6568C17.8742 19.9011 18.2254 19.3591 18.7941 18.7903C19.3629 18.2216 19.9011 17.8704 20.6607 17.5765C21.2332 17.3551 22.092 17.0918 23.6723 17.0192C25.3823 16.9429 25.8976 16.9238 30.226 16.9238ZM30.226 14C25.8212 14 25.2678 14.0191 23.5387 14.0992C21.8134 14.1794 20.6339 14.4504 19.5995 14.855C18.5346 15.2711 17.63 15.8245 16.7253 16.7253C15.8245 17.6261 15.2672 18.5308 14.855 19.5995C14.4542 20.6301 14.1794 21.8096 14.0992 23.5387C14.0191 25.2678 14 25.8212 14 30.226C14 34.6309 14.0191 35.1843 14.0992 36.9134C14.1794 38.6387 14.4504 39.8181 14.855 40.8526C15.2711 41.9175 15.8245 42.8221 16.7253 43.7267C17.6261 44.6276 18.5308 45.1848 19.5995 45.5971C20.6301 45.9979 21.8096 46.2727 23.5387 46.3528C25.2678 46.433 25.8212 46.4521 30.226 46.4521C34.6309 46.4521 35.1843 46.433 36.9134 46.3528C38.6387 46.2727 39.8181 46.0017 40.8526 45.5971C41.9175 45.181 42.8221 44.6276 43.7267 43.7267C44.6276 42.8259 45.1848 41.9213 45.5971 40.8526C45.9979 39.822 46.2727 38.6425 46.3528 36.9134C46.433 35.1843 46.4521 34.6309 46.4521 30.226C46.4521 25.8212 46.433 25.2678 46.3528 23.5387C46.2727 21.8134 46.0017 20.6339 45.5971 19.5995C45.181 18.5346 44.6276 17.63 43.7267 16.7253C42.8259 15.8245 41.9213 15.2672 40.8526 14.855C39.822 14.4542 38.6425 14.1794 36.9134 14.0992C35.1843 14.0191 34.6309 14 30.226 14Z" fill="white"/>
<path d="M29.9987 21.6709C25.3992 21.6709 21.67 25.4001 21.67 29.9996C21.67 34.5991 25.3992 38.3283 29.9987 38.3283C34.5982 38.3283 38.3274 34.5991 38.3274 29.9996C38.3274 25.4001 34.5982 21.6709 29.9987 21.6709ZM29.9987 35.4083C27.0138 35.4083 24.59 32.9883 24.59 29.9996C24.59 27.0109 27.01 24.5909 29.9987 24.5909C32.9874 24.5909 35.4074 27.0109 35.4074 29.9996C35.4074 32.9883 32.9874 35.4083 29.9987 35.4083Z" fill="white"/>
<path d="M38.6605 23.2849C39.7356 23.2849 40.6072 22.4134 40.6072 21.3383C40.6072 20.2632 39.7356 19.3916 38.6605 19.3916C37.5854 19.3916 36.7139 20.2632 36.7139 21.3383C36.7139 22.4134 37.5854 23.2849 38.6605 23.2849Z" fill="white"/>
</g>
<defs>
<linearGradient id="paint0_linear_172_5331" x1="11.9742" y1="55.5699" x2="42.7654" y2="1.59745" gradientUnits="userSpaceOnUse">
<stop stop-color="#F39651"/>
<stop offset="0.494792" stop-color="#EE307A"/>
<stop offset="1" stop-color="#8C37B0"/>
</linearGradient>
<clipPath id="clip0_172_5331">
<rect width="32.4444" height="32.4444" fill="white" transform="translate(13.777 13.7773)"/>
</clipPath>
</defs>
</svg>
